<svg xmlns="http://www.w3.org/2000/svg" viewBox="0 0 24 24" width="48" height="48">
  <defs>
    <linearGradient id="processGradient" x1="0%" y1="0%" x2="100%" y2="100%">
      <stop offset="0%" style="stop-color:#4CAF50;stop-opacity:1" />
      <stop offset="100%" style="stop-color:#2E7D32;stop-opacity:1" />
    </linearGradient>
  </defs>
  
  <!-- Processing gear icon -->
  <g fill="url(#processGradient)">
    <!-- Main gear -->
    <path d="M12,2 L13.09,8.26 L16.79,5.08 L18.21,6.5 L15.03,10.2 L21.29,11.29 L21.29,12.71 L15.03,13.8 L18.21,17.5 L16.79,18.92 L13.09,15.74 L12,22 L10.91,15.74 L7.21,18.92 L5.79,17.5 L8.97,13.8 L2.71,12.71 L2.71,11.29 L8.97,10.2 L5.79,6.5 L7.21,5.08 L10.91,8.26 L12,2 Z"/>
    
    <!-- Inner circle -->
    <circle cx="12" cy="12" r="3" fill="#FFFFFF"/>
    
    <!-- Center dot -->
    <circle cx="12" cy="12" r="1" fill="url(#processGradient)"/>
  </g>
  
  <!-- Processing indicators -->
  <g opacity="0.6">
    <circle cx="4" cy="4" r="1.5" fill="#4CAF50">
      <animate attributeName="opacity" values="0.2;1;0.2" dur="1.5s" repeatCount="indefinite" begin="0s"/>
    </circle>
    <circle cx="20" cy="4" r="1.5" fill="#4CAF50">
      <animate attributeName="opacity" values="0.2;1;0.2" dur="1.5s" repeatCount="indefinite" begin="0.3s"/>
    </circle>
    <circle cx="4" cy="20" r="1.5" fill="#4CAF50">
      <animate attributeName="opacity" values="0.2;1;0.2" dur="1.5s" repeatCount="indefinite" begin="0.6s"/>
    </circle>
    <circle cx="20" cy="20" r="1.5" fill="#4CAF50">
      <animate attributeName="opacity" values="0.2;1;0.2" dur="1.5s" repeatCount="indefinite" begin="0.9s"/>
    </circle>
  </g>
  
  <!-- Rotation animation for gear -->
  <animateTransform 
    attributeName="transform" 
    type="rotate" 
    values="0 12 12;360 12 12" 
    dur="3s" 
    repeatCount="indefinite"/>
</svg>
