<svg xmlns="http://www.w3.org/2000/svg" viewBox="0 0 24 24" width="48" height="48">
  <defs>
    <linearGradient id="uploadGradient" x1="0%" y1="0%" x2="100%" y2="100%">
      <stop offset="0%" style="stop-color:#4CAF50;stop-opacity:1" />
      <stop offset="100%" style="stop-color:#2E7D32;stop-opacity:1" />
    </linearGradient>
  </defs>
  
  <!-- Cloud shape for upload -->
  <path d="M19,15 C19,16.654 17.654,18 16,18 L5,18 C3.346,18 2,16.654 2,15 C2,13.346 3.346,12 5,12 C5.186,12 5.367,12.016 5.542,12.045 C5.821,9.693 7.768,7.849 10.153,7.849 C11.648,7.849 13.014,8.626 13.799,9.876 C14.094,9.641 14.482,9.5 14.897,9.5 C15.993,9.5 16.897,10.404 16.897,11.5 C18.059,11.5 19,12.441 19,13.603 L19,15 Z" 
        fill="url(#uploadGradient)" opacity="0.2"/>
  
  <!-- Upload arrow -->
  <g fill="#2E7D32">
    <!-- Arrow shaft -->
    <rect x="11" y="8" width="2" height="8" rx="1"/>
    
    <!-- Arrow head -->
    <path d="M7,10 L12,5 L17,10 Z"/>
    
    <!-- File lines -->
    <rect x="6" y="16" width="12" height="1" rx="0.5" opacity="0.7"/>
    <rect x="6" y="18" width="8" height="1" rx="0.5" opacity="0.5"/>
    <rect x="6" y="20" width="10" height="1" rx="0.5" opacity="0.3"/>
  </g>
</svg>
